<?xml version="1.0" encoding="UTF-8"?>
<svg id="Layer_1" data-name="Layer 1" xmlns="http://www.w3.org/2000/svg" viewBox="0 0 180.54 180.44">
  <path d="M89.77,15.16c24.28,0,27.14.1,36.73.53,8.87.38,13.69,1.86,16.89,3.15,4.25,1.67,7.25,3.63,10.45,6.78,3.2,3.2,5.15,6.21,6.82,10.45,1.24,3.2,2.72,8.02,3.15,16.9.43,9.59.52,12.46.52,36.75s-.1,27.16-.52,36.75c-.43,8.88-1.86,13.7-3.15,16.9-1.67,4.25-3.63,7.26-6.82,10.45-3.2,3.2-6.2,5.16-10.45,6.78-3.2,1.24-8.01,2.72-16.89,3.15-9.59.43-12.45.53-36.73.53s-27.14-.1-36.73-.53c-8.87-.38-13.69-1.86-16.89-3.15-4.25-1.67-7.25-3.63-10.45-6.78-3.2-3.2-5.15-6.21-6.82-10.45-1.24-3.2-2.72-8.02-3.15-16.9-.43-9.59-.52-12.46-.52-36.75s.1-27.16.52-36.75c.43-8.88,1.86-13.7,3.15-16.9,1.67-4.25,3.63-7.26,6.82-10.45,3.2-3.2,6.2-5.16,10.45-6.78,3.2-1.24,8.01-2.72,16.89-3.15,9.59-.43,12.5-.53,36.73-.53M90.27,0c-24.5,0-27.58.09-37.2.52-9.62.43-16.16,1.94-21.89,4.22-5.92,2.32-10.99,5.4-15.97,10.42-5.02,5.02-8.1,10.05-10.42,15.97-2.23,5.73-3.74,12.32-4.22,21.89-.43,9.62-.57,12.7-.57,37.2s.09,27.58.57,37.2c.43,9.62,1.94,16.16,4.22,21.89,2.32,5.92,5.4,10.99,10.42,15.97,5.02,5.02,10.05,8.1,15.97,10.42,5.73,2.23,12.32,3.74,21.89,4.22,9.62.43,12.7.52,37.2.52s27.58-.09,37.2-.52c9.62-.43,16.16-1.94,21.89-4.22,5.92-2.32,10.95-5.4,15.97-10.42,5.02-5.02,8.1-10.05,10.42-15.97,2.23-5.73,3.74-12.32,4.22-21.89.43-9.62.57-12.7.57-37.2s-.09-27.58-.57-37.2c-.43-9.62-1.94-16.16-4.22-21.89-2.32-5.92-5.4-10.99-10.42-15.97-5.02-5.02-10.05-8.1-15.97-10.42-5.73-2.23-12.32-3.74-21.89-4.22-9.62-.43-12.65-.52-37.2-.52M90.27,43.88c-25.59,0-46.34,20.75-46.34,46.34s20.75,46.34,46.34,46.34,46.34-20.75,46.34-46.34c0-25.59-20.75-46.34-46.34-46.34M90.27,120.36c-16.63,0-30.09-13.46-30.09-30.09s13.46-30.09,30.09-30.09,30.09,13.46,30.09,30.09-13.46,30.09-30.09,30.09M149.31,42.08c0-5.97-4.83-10.85-10.85-10.85s-10.85,4.83-10.85,10.85,4.83,10.85,10.85,10.85c5.97-.05,10.85-4.88,10.85-10.85"/>
</svg>