<?xml version="1.0" encoding="UTF-8"?>
<svg id="Layer_1" xmlns="http://www.w3.org/2000/svg" version="1.1" viewBox="0 0 209.5 233.1">
  <!-- Generator: Adobe Illustrator 29.0.1, SVG Export Plug-In . SVG Version: 2.1.0 Build 192)  -->
  <defs>
    <style>
      .st0 {
        display: none;
        fill: #fff;
      }

      .st1 {
        fill: #020202;
      }
    </style>
  </defs>
  <rect class="st0" x="-54" y="-37" width="333" height="333"/>
  <path class="st1" d="M149.9,51.9s0,0,0,0c47.5-25.5,65.7,12.1,57.8,55.7-7.5,41.4-32.4,67.9-55.5,99.9-5.4,7.5-24.5,36.4-38.1,21.3-10-11.2,7.5-31.1,14.4-41.4,15.5-23.4,32.1-40,45.9-66.4,3.7-7.2,16.6-38.7,6.3-47.8-1.6-1.4-3.6-2.1-5.6-1.6-14.6,3.8-34.2,23.5-48.6,13.5-7.8-5.4-5.2-15.2-3.3-22.6,2.3-9,19.9-53.5,24.9-58.9,3.3-3.7,9.9-5,13.2-1.3,7.4,8.2-10.8,38.9-11.4,49.7h0Z"/>
  <path class="st1" d="M109.8,127.2c3.7,3.3,34.6-43,51.4-27.4,11.3,10.4,1.1,21.9-10.3,31.7-6.3,5.5-11.7,10.7-15.2,14.7-3.6,4.1-9.5,10.1-14.7,16.4-11,13.2-24.4,26.5-35.7,19.8-5-3-7.7-8.7-7.4-14.5,2.6-46.1,1.6-93.9,10.6-139.2,1.2-6,4.3-21.4,9.3-25.8.4-.4.6-.5.9-.7,13.9-7.6,17,6.2,17.8,17.9,1.1,15.4-10.7,103.6-6.7,107.1h0Z"/>
  <path class="st1" d="M90,198.4c-14.1-12.3-25.7-27.5-38.3-41.3,10.3-23.3,23.7-43,24.7-69.4.8-22.4-9.3-62.3-39.4-56.3C-12.1,41.2-3.2,115.7,12.1,149.3c8.7,18.9,54.8,68.6,73.3,77.3,6.9,3.2,17.6,5.4,20.5-4.2,1.2-4,.3-8.8-.8-10.7-1.5-2.8-2.2-3.2-3.4-4.3-1.5-1.3-4.1-3-6.1-4.6-.4-.3-2.4-1.7-5.6-4.4h0ZM37,123.4c-.2.7-1.2,2.7-1.5,2.9-.2.2-.3.3-.6.4-1.1.5-2.4-.3-2.8-1.4-3.7-11.2-6.8-24-5.4-35,1.2-9.2,5.1-32.3,18.2-30.1,8.6,1.5,3.4,34.2,1.6,40.8-1.5,5.6-4.3,12.1-7.1,17.3,0,.1-2.3,4.6-2.4,5Z"/>
</svg>